<?xml version="1.0" encoding="utf-8"?>
<!-- Generator: Adobe Illustrator 23.0.6, SVG Export Plug-In . SVG Version: 6.00 Build 0)  -->
<!DOCTYPE svg PUBLIC "-//W3C//DTD SVG 1.1//EN" "http://www.w3.org/Graphics/SVG/1.1/DTD/svg11.dtd" [
	<!ENTITY ns_extend "http://ns.adobe.com/Extensibility/1.0/">
	<!ENTITY ns_ai "http://ns.adobe.com/AdobeIllustrator/10.0/">
	<!ENTITY ns_graphs "http://ns.adobe.com/Graphs/1.0/">
	<!ENTITY ns_vars "http://ns.adobe.com/Variables/1.0/">
	<!ENTITY ns_imrep "http://ns.adobe.com/ImageReplacement/1.0/">
	<!ENTITY ns_sfw "http://ns.adobe.com/SaveForWeb/1.0/">
	<!ENTITY ns_custom "http://ns.adobe.com/GenericCustomNamespace/1.0/">
	<!ENTITY ns_adobe_xpath "http://ns.adobe.com/XPath/1.0/">
]>
<svg version="1.1"
	 id="svg5207" xmlns:x="&ns_extend;" xmlns:i="&ns_ai;" xmlns:graph="&ns_graphs;" inkscape:version="0.48.5 r10040" sodipodi:docname="New document 3" xmlns:cc="http://creativecommons.org/ns#" xmlns:dc="http://purl.org/dc/elements/1.1/" xmlns:inkscape="http://www.inkscape.org/namespaces/inkscape" xmlns:rdf="http://www.w3.org/1999/02/22-rdf-syntax-ns#" xmlns:sodipodi="http://sodipodi.sourceforge.net/DTD/sodipodi-0.dtd" xmlns:svg="http://www.w3.org/2000/svg"
	 xmlns="http://www.w3.org/2000/svg" xmlns:xlink="http://www.w3.org/1999/xlink" x="0px" y="0px" viewBox="0 0 471.6 615.2"
	 style="enable-background:new 0 0 471.6 615.2;" xml:space="preserve">
<style type="text/css">
	.st0{clip-path:url(#SVGID_2_);fill:url(#path1323_1_);}
	.st1{clip-path:url(#SVGID_4_);fill:url(#path1330_1_);}
	.st2{clip-path:url(#SVGID_6_);fill:url(#path1337_1_);}
	.st3{clip-path:url(#SVGID_8_);fill:url(#path1344_1_);}
</style>
<metadata  id="metadata5212">
	<rdf:RDF>
		<cc:Work  rdf:about="">
			<dc:format>image/svg+xml</dc:format>
			<dc:type  rdf:resource="http://purl.org/dc/dcmitype/StillImage"></dc:type>
			<dc:title></dc:title>
		</cc:Work>
	</rdf:RDF>
	<sfw  xmlns="&ns_sfw;">
		<slices></slices>
		<sliceSourceBounds  bottomLeftOrigin="true" height="615.2" width="471.6" x="0" y="-143.6"></sliceSourceBounds>
	</sfw>
</metadata>
<path id="path1308" inkscape:connector-curvature="0" d="M220.8,167.2c-1.6,0-3.2,0-4.7,0l-53.6,12.6c-4.7,1.6-7.9,6.3-7.9,11.8
	c0,10.3,0,21.3,0,25.2c0,6.3,6.3,11,12.6,9.5c12.6-2.4,14.2-3.2,15.8-3.9V321c0,7.1,5.5,12.6,12.6,12.6h22.1
	c7.1,0,12.6-5.5,12.6-12.6V179.8C231,173.5,226.3,168.8,220.8,167.2L220.8,167.2z"/>
<g>
	<g>
		<defs>
			<path id="SVGID_1_" d="M235.8,0C105.7,0,0,105.7,0,235.8s105.7,235.8,235.8,235.8s235.8-105.7,235.8-235.8S365.9,0,235.8,0
				L235.8,0z M201.1,388.8c-75.7,0-137.2-61.5-137.2-137.2s61.5-137.2,137.2-137.2s137.2,61.5,137.2,137.2S276.8,388.8,201.1,388.8z
				"/>
		</defs>
		<clipPath id="SVGID_2_">
			<use xlink:href="#SVGID_1_"  style="overflow:visible;"/>
		</clipPath>
		
			<linearGradient id="path1323_1_" gradientUnits="userSpaceOnUse" x1="-9.0821" y1="501.8556" x2="-59.905" y2="470.3441" gradientTransform="matrix(7.8856 0 0 7.8856 507.8023 -3597.3889)">
			<stop  offset="0" style="stop-color:#DD4C2F"/>
			<stop  offset="1" style="stop-color:#991F21"/>
		</linearGradient>
		<path id="path1323" inkscape:connector-curvature="0" class="st0" d="M235.8,0C105.7,0,0,105.7,0,235.8s105.7,235.8,235.8,235.8
			s235.8-105.7,235.8-235.8S365.9,0,235.8,0L235.8,0z M239.7,442.4c-109.6,0-199.5-89.1-199.5-199.5c0-109.6,89.1-199.5,199.5-199.5
			s199.5,89.1,199.5,199.5S349.3,442.4,239.7,442.4z"/>
	</g>
</g>
<g>
	<g>
		<defs>
			<path id="SVGID_3_" d="M235.8,0C105.7,0,0,105.7,0,235.8s105.7,235.8,235.8,235.8s235.8-105.7,235.8-235.8S365.9,0,235.8,0
				L235.8,0z M201.1,388.8c-75.7,0-137.2-61.5-137.2-137.2s61.5-137.2,137.2-137.2s137.2,61.5,137.2,137.2S276.8,388.8,201.1,388.8z
				"/>
		</defs>
		<clipPath id="SVGID_4_">
			<use xlink:href="#SVGID_3_"  style="overflow:visible;"/>
		</clipPath>
		
			<linearGradient id="path1330_1_" gradientUnits="userSpaceOnUse" x1="-44.5243" y1="465.158" x2="-13.512" y2="501.2131" gradientTransform="matrix(7.8856 0 0 7.8856 507.8023 -3597.3889)">
			<stop  offset="0" style="stop-color:#DD4C2F"/>
			<stop  offset="1" style="stop-color:#991F21"/>
		</linearGradient>
		<path id="path1330" inkscape:connector-curvature="0" class="st1" d="M279.2,25.2c-103.3,0-187.7,83.6-187.7,187.7
			s83.6,187.7,187.7,187.7S466.9,317,466.9,212.9C466.8,108.8,382.5,25.2,279.2,25.2z M287.8,368.3c-90.7,0-164-73.3-164-164
			s73.3-164,164-164s164,73.3,164,164S378.5,368.3,287.8,368.3z"/>
	</g>
</g>
<g>
	<g>
		<defs>
			<path id="SVGID_5_" d="M235.8,0C105.7,0,0,105.7,0,235.8s105.7,235.8,235.8,235.8s235.8-105.7,235.8-235.8S365.9,0,235.8,0
				L235.8,0z M201.1,388.8c-75.7,0-137.2-61.5-137.2-137.2s61.5-137.2,137.2-137.2s137.2,61.5,137.2,137.2S276.8,388.8,201.1,388.8z
				"/>
		</defs>
		<clipPath id="SVGID_6_">
			<use xlink:href="#SVGID_5_"  style="overflow:visible;"/>
		</clipPath>
		
			<linearGradient id="path1337_1_" gradientUnits="userSpaceOnUse" x1="-47.6937" y1="508.6967" x2="-15.6453" y2="476.6485" gradientTransform="matrix(7.8856 0 0 7.8856 507.8023 -3597.3889)">
			<stop  offset="0" style="stop-color:#DD4C2F"/>
			<stop  offset="1" style="stop-color:#991F21"/>
		</linearGradient>
		<path id="path1337" inkscape:connector-curvature="0" class="st2" d="M257.9,108.8c-98.6,0-179,79.6-179,179
			c0,98.6,79.6,179,179,179c98.6,0,179-79.6,179-179C436.9,189.3,356.4,108.8,257.9,108.8z M247.6,433.7
			C162.4,433.7,93,364.3,93,279.2c0-85.2,69.4-154.6,154.6-154.6S402.2,194,402.2,279.2C401.4,364.3,332.8,433.7,247.6,433.7z"/>
	</g>
</g>
<g>
	<g>
		<defs>
			<path id="SVGID_7_" d="M235.8,0C105.7,0,0,105.7,0,235.8s105.7,235.8,235.8,235.8s235.8-105.7,235.8-235.8S365.9,0,235.8,0
				L235.8,0z M201.1,388.8c-75.7,0-137.2-61.5-137.2-137.2s61.5-137.2,137.2-137.2s137.2,61.5,137.2,137.2S276.8,388.8,201.1,388.8z
				"/>
		</defs>
		<clipPath id="SVGID_8_">
			<use xlink:href="#SVGID_7_"  style="overflow:visible;"/>
		</clipPath>
		
			<linearGradient id="path1344_1_" gradientUnits="userSpaceOnUse" x1="-21.3059" y1="501.7511" x2="-59.8713" y2="477.8395" gradientTransform="matrix(7.8856 0 0 7.8856 507.8023 -3597.3889)">
			<stop  offset="0" style="stop-color:#DD4C2F"/>
			<stop  offset="1" style="stop-color:#991F21"/>
		</linearGradient>
		<path id="path1344" inkscape:connector-curvature="0" class="st3" d="M187.7,86c-98.6,0-179,80.4-179,179s80.4,179,179,179
			s179-80.4,179-179C366.7,165.6,286.2,86,187.7,86z M201.1,388.8c-75.7,0-137.2-61.5-137.2-137.2s61.5-137.2,137.2-137.2
			s137.2,61.5,137.2,137.2S276.8,388.8,201.1,388.8z"/>
	</g>
</g>
<g id="g1890" transform="matrix(9.3883021,0,0,9.3883021,-5952.2817,-4830.4068)">
	<path id="path1892" inkscape:connector-curvature="0" d="M640.5,567c0.7,0,1.4,0.1,2,0.4c0.6,0.2,1.2,0.6,1.7,1.1
		c0.5,0.5,0.9,1.1,1.1,1.9c0.3,0.8,0.4,1.8,0.4,2.9v6.2c0,0.2-0.1,0.3-0.3,0.3h-2.2c-0.2,0-0.3-0.1-0.3-0.3v-5.8
		c0-0.7-0.1-1.4-0.2-1.8c-0.1-0.5-0.4-0.9-0.6-1.1c-0.3-0.3-0.6-0.5-0.9-0.6s-0.6-0.2-1-0.2c-0.9,0-1.5,0.3-2,0.9
		c-0.5,0.6-0.9,1.7-0.9,2.8v5.9c0,0.2-0.1,0.3-0.3,0.3h-2.2c-0.2,0-0.3-0.1-0.3-0.3v-12c0-0.2,0.1-0.3,0.3-0.3h0.9
		c0.4,0,0.8,0.1,1.1,0.4c0.3,0.3,0.4,0.6,0.4,1c0.3-0.4,0.7-0.7,1-0.9C638.9,567.2,639.8,567,640.5,567"/>
	<path id="path1894" inkscape:connector-curvature="0" d="M657.6,577.3c0.1,0.1,0.1,0.1,0.1,0.2s0,0.1-0.1,0.3
		c-0.6,0.7-1.4,1.2-2.3,1.6c-0.9,0.4-1.8,0.6-2.6,0.6c-0.9,0-1.8-0.1-2.6-0.5c-0.9-0.4-1.5-0.8-2.1-1.4c-0.6-0.6-1-1.3-1.4-2.1
		s-0.5-1.7-0.5-2.6c0-0.9,0.1-1.7,0.5-2.5c0.3-0.8,0.7-1.5,1.3-2.1c0.6-0.6,1.2-1.1,1.9-1.4c0.7-0.4,1.5-0.5,2.3-0.5
		c0.9,0,1.6,0.1,2.3,0.5c0.7,0.3,1.4,0.8,1.9,1.4c0.6,0.6,1,1.4,1.3,2.3c0.3,0.9,0.4,1.9,0.4,3.1c0,0.1-0.1,0.3-0.1,0.4
		c-0.1,0.1-0.2,0.1-0.4,0.1h-8.5c0.1,0.4,0.1,0.6,0.4,1c0.2,0.3,0.5,0.6,0.9,0.9c0.3,0.2,0.6,0.4,1.1,0.6c0.4,0.1,0.8,0.2,1.1,0.2
		c0.7,0,1.3-0.1,1.8-0.4c0.5-0.3,0.9-0.6,1.1-0.9c0.1-0.1,0.3-0.1,0.4,0L657.6,577.3L657.6,577.3z M655.5,572.4
		c-0.1-0.8-0.4-1.4-0.9-2c-0.5-0.6-1.3-0.8-2.1-0.8c-0.9,0-1.6,0.2-2.1,0.8c-0.6,0.6-0.9,1.2-1,2H655.5L655.5,572.4z"/>
	<path id="path1896" inkscape:connector-curvature="0" d="M662.2,579.6l-4.8-12.2c0-0.1,0-0.1,0-0.2c0.1-0.1,0.1-0.1,0.1-0.1h2.3
		c0.2,0,0.4,0.1,0.4,0.3l2.6,6.5l2.9-6.6c0.1-0.2,0.2-0.3,0.4-0.3s0.4,0.1,0.4,0.3l3,6.6l2.5-6.5c0.1-0.2,0.2-0.3,0.4-0.3h2.3
		c0.1,0,0.1,0.1,0.1,0.1c0.1,0.1,0.1,0.1,0,0.2l-4.7,12.2c-0.1,0.2-0.2,0.3-0.4,0.4c-0.2,0-0.4-0.1-0.5-0.3l-3.1-6.7l-3.1,6.7
		c-0.1,0.2-0.2,0.3-0.4,0.3C662.4,580,662.3,579.8,662.2,579.6"/>
	<path id="path1898" inkscape:connector-curvature="0" d="M679.1,580c-0.7,0-1.3-0.1-1.8-0.3c-0.6-0.1-1-0.4-1.4-0.6
		c-0.4-0.2-0.8-0.5-1.1-0.7s-0.5-0.4-0.6-0.6c-0.1-0.1-0.1-0.1-0.1-0.1c0-0.1,0-0.1,0.1-0.2l1.3-1.5c0.1-0.1,0.3-0.1,0.4,0
		c0.1,0.1,1,0.9,2.2,1.4c0.4,0.1,0.8,0.2,1.2,0.2s0.8-0.1,1.1-0.3c0.3-0.2,0.4-0.5,0.4-0.8c0-0.3-0.1-0.5-0.3-0.7
		c-0.1-0.2-0.4-0.4-0.6-0.4c-0.6-0.3-2.2-0.9-2.8-1.1c-0.4-0.2-0.8-0.4-1.1-0.8c-0.4-0.3-0.6-0.6-0.8-1.1c-0.2-0.4-0.3-1-0.3-1.6
		c0-0.6,0.1-1.1,0.4-1.6c0.2-0.4,0.5-0.9,0.9-1.1c0.4-0.3,0.9-0.6,1.5-0.8c1.4-0.4,2.4-0.2,3.2,0.1c0.5,0.1,0.9,0.4,1.4,0.6
		c0.4,0.2,0.7,0.5,0.9,0.7c0.2,0.3,0.4,0.4,0.6,0.6c0.1,0.1,0.1,0.4-0.1,0.4l-1.4,1.2c-0.1,0.1-0.3,0.1-0.4,0
		c-0.1-0.1-0.6-0.6-1-0.9c-0.2-0.1-0.5-0.2-0.8-0.4c-0.3-0.1-0.6-0.1-0.9-0.1c-0.4,0-0.7,0.1-1,0.4c-0.2,0.2-0.4,0.5-0.4,0.7
		c0,0.3,0.1,0.5,0.2,0.6s0.4,0.3,0.6,0.4c0.6,0.3,2.1,0.7,2.9,1.1c0.4,0.2,0.9,0.5,1.2,0.9c0.4,0.4,0.6,0.7,0.8,1.1
		c0.2,0.4,0.3,1,0.3,1.6c0,1.2-0.4,2.1-1.2,2.7C681.5,579.7,680.4,580,679.1,580"/>
</g>
</svg>
